/* XPM */
static char *Adjust_xpm[] = {
"20 16 6 1",
"0	c None",
"1	c #0000FF",
"2	c #FF0000",
"3	c #FFFF00",
"4	c #808080",
"5	c #000000",
"00001002222222331300",
"00001000002000221200",
"00001000024500001000",
"00001000024500001000",
"00001000024500001000",
"00001000024500001000",
"00011000244500001000",
"00011000244500001000",
"00011000344500001100",
"03333330044500001100",
"13333331044500001100",
"01111110044500333333",
"00000000044501333333",
"00000000044500111111",
"00000000044500000000",
"00000000044500000000"
};
