/* XPM */
static char *AppIconSettings_xpm[] = {
"32 32 63 1",
" 	c None",
"B	c #C5B1B1",
"C	c #808080",
"D	c #130000",
"E	c #00007F",
"F	c #F8DF00",
"G	c #000000",
"H	c #0B0000",
"I	c #7B7B84",
"J	c #787888",
"K	c #75758B",
"L	c #72728D",
"M	c #6F6F91",
"N	c #B1B1C5",
"O	c #007887",
"P	c #007789",
"Q	c #00768A",
"R	c #00758A",
"S	c #00738C",
"T	c #00728E",
"U	c #007090",
"V	c #006F91",
"W	c #006E92",
"X	c #006D93",
"Y	c #006C94",
"Z	c #006898",
"a	c #00659B",
"b	c #00629E",
"c	c #005FA1",
"d	c #005AA6",
"e	c #0055AB",
"f	c #0050B0",
"g	c #006A96",
"h	c #070000",
"i	c #002BFF",
"j	c #00669A",
"k	c #00639C",
"l	c #A9A9C8",
"m	c #00619E",
"n	c #0024FF",
"o	c #040000",
"p	c #00002B",
"q	c #001CFF",
"r	c #006799",
"s	c #00649C",
"t	c #FFFFFF",
"u	c #000CFF",
"v	c #837D7D",
"w	c #000020",
"x	c #0014FF",
"y	c #010101",
"z	c #FCFCFF",
"0	c #000094",
"1	c #000004",
"2	c #C1C1C1",
"3	c #3000CF",
"4	c #800000",
"5	c #00FFFF",
"6	c #0000FF",
"7	c #7D0006",
"8	c #DFDDDD",
"9	c #FF0000",
"+	c #FF00FF",
"                               B",
"                               B",
"CCCCCCCCCCCCCCCCCCCCCCCCCCCCCCCD",
"C                             CD",
"C EEEEEEEEEEEEEEEEEEEEEEEEEEEECH",
"C EEEEEEEEEEEEEEEEEEE  G  G  GCH",
"C EEEEEEEEEEEEEEEEEEE  G  G  GCH",
"C EEEEEEEEEEEEEEEEEEEGGGGGGGGGCH",
"C                             CH",
"C IIIIIIIJJJJJKKKKKLLLLLMMMMMNCH",
"C IFFFFFFFFFFFFFFFFFFFFFFFFFFNCH",
"C IFFFFFFFFFFFFFFFFFFFFFFFFFFNCh",
"C IFFFFFFFFFFFFFFFFFFFFFFFFFFNCh",
"C IFFFFFFFFFFFFFFFFFFFFFFFFFFlCh",
"C IFFFFFFFFFFFFFFFFFFFFFFFFFFNCo",
"C JFFFFFFFFFFFFFFFFMMMMpFFFFFlCo",
"C JFFFFFFFFFFFFFFFFMt CpFFFFFlvo",
"C J                M  Cp     NCo",
"C JFFFFFKKFFLLLMMMMM  CwFFFFFlCy",
"C JFFFFKzzLLzttttttG  MpFFFFFlCG",
"C KFFFFKt tt       tG pFFFFFFlvG",
"C KFFFFL  CC     CCCtGpFFFFFFlCG",
"C KFFFFLLLwwMC CCGGGCGpFFFFFFlCG",
"C KFFFFFwwFFww GGFFFG1pFFFFFFlCG",
"C KFFFFFFFFFFw2GFFFFC pFFFFFFlvG",
"C L          p G    C p      lvG",
"C LFFFFFFFFFFp GFFFFC pFFFFFFlCG",
"C LFFFFFFFFFF0EEFFFF444FFFFFFlCG",
"C NNNNNNNNNN0N56G  78 9pllllllvG",
"CCCCCCCCCCCCE56EGCC4+94GvvvvvCCG",
"GGGGGGGGGGGGE56EGGG4+94GGGGGGGGG",
"            E56EG  4+94G        "
};
