/* XPM */
static char *AppIcon_xpm[] = {
"32 32 8 1",
"0	c #000000",
"1	c #FF0000",
"2	c #FFFF00",
"3	c #0000FF",
"4	c #00FFFF",
"5	c #C0C0C0",
"6	c #FFFFFF",
" 	c None",
"00000000000000000000000000000000",
"06666666666666666666666666666660",
"06              0000          60",
"06 220          0000          60",
"06 60222        0000          60",
"0622662220     0000           60",
"02222266202    4444           60",
"06 2222262220  4444           60",
"06   222266202444 44          60",
"06     222266244  44          60",
"06      222226442244          60",
"06        2224442244          60",
"06          2442664422        60",
"06          44422244222       60",
"06 1111111114422224462220     6 ",
"06 15555550 44555224466202     0",
"06 15555500045555554422622220 60",
"06 15555550005555554422266220260",
"06 15555554005555554452222662 60",
"06 15555554000055554455222226660",
"06 155555444000000544551  22  60",
"06 155555445550000000001      60",
"06 155555445555550000001      60",
"06 155554445555555554451      60",
"06 155554455555555554451      60",
"06 111114411111111114411      60",
"06     00           44 33     60",
"06    000            443      60",
"06    00             443      60",
"06    0              333      60",
"06666666666666666666633666666660",
"00000000000000000000030000000000"
};
