/* XPM */
static char *Appssystem_xpm[] = {
"32 32 542 2",
"  	c None",
"BA	c #070707",
"CA	c #0B0B0B",
"DA	c #030303",
"EA	c #0C0C0C",
"FA	c #080809",
"GA	c #121212",
"HA	c #79797E",
"IA	c #FFFFFF",
"JA	c #010101",
"KA	c #0F0F0F",
"LA	c #0B0B0C",
"MA	c #0A0A0A",
"NA	c #171717",
"OA	c #87878A",
"PA	c #151515",
"QA	c #7B7B81",
"RA	c #060706",
"SA	c #141714",
"TA	c #131314",
"UA	c #88888A",
"VA	c #171718",
"WA	c #040404",
"XA	c #616163",
"YA	c #EBEBEC",
"ZA	c #FEFEFE",
"aA	c #8D8D91",
"bA	c #020202",
"cA	c #818187",
"dA	c #88928A",
"eA	c #40553A",
"fA	c #91B387",
"gA	c #475F40",
"hA	c #8D9190",
"iA	c #515158",
"jA	c #FCFCFC",
"kA	c #F5F5F7",
"lA	c #515154",
"mA	c #78787A",
"nA	c #B9B9BA",
"oA	c #C9DFC6",
"pA	c #90DC7F",
"qA	c #80D86B",
"rA	c #A1E58B",
"sA	c #C0F0AB",
"tA	c #CAF4B5",
"uA	c #B8ED9F",
"vA	c #99E17F",
"wA	c #8ADA6E",
"xA	c #BDEAAD",
"yA	c #515455",
"zA	c #050B03",
"0A	c #B1E597",
"1A	c #B5E79C",
"2A	c #C0C0C6",
"3A	c #FAFAFB",
"4A	c #F8F8FA",
"5A	c #EFF7EE",
"6A	c #83D874",
"7A	c #6AD353",
"8A	c #99E680",
"9A	c #A8EE88",
"+A	c #A8F084",
"/A	c #ADF288",
"AB	c #B2F48B",
"BB	c #B7F68E",
"CB	c #BCF892",
"DB	c #C2F89D",
"EB	c #9FE77C",
"FB	c #60BD3E",
"GB	c #418926",
"HB	c #6FD142",
"IB	c #B2E799",
"JB	c #91DB6C",
"KB	c #78787E",
"LB	c #F7F7F9",
"MB	c #DAECD8",
"NB	c #5AC349",
"OB	c #7EDB6B",
"PB	c #84E06D",
"QB	c #88E26E",
"RB	c #8CE471",
"SB	c #90E574",
"TB	c #95E777",
"UB	c #9AE97B",
"VB	c #9EEB7E",
"WB	c #A3EE81",
"XB	c #B3F390",
"YB	c #86DC63",
"ZB	c #62CC38",
"aB	c #66CE3A",
"bB	c #97E371",
"cB	c #9DE672",
"dB	c #73D245",
"eB	c #050505",
"fB	c #5E5E61",
"gB	c #6B6B6D",
"hB	c #717174",
"iB	c #F1F1F4",
"jB	c #F4F4F6",
"kB	c #DBE9DC",
"lB	c #4FB241",
"mB	c #6DD35F",
"nB	c #6AD659",
"oB	c #6ED75C",
"pB	c #72D95F",
"qB	c #76DB62",
"rB	c #7BDC65",
"sB	c #7FDE68",
"tB	c #83E06B",
"uB	c #92E675",
"vB	c #97E878",
"wB	c #9BEA7C",
"xB	c #A2EC81",
"yB	c #92E172",
"zB	c #92E171",
"0B	c #AFF28A",
"1B	c #92E26A",
"2B	c #6BD03D",
"3B	c #141414",
"4B	c #D9D9DF",
"5B	c #EFEFF3",
"6B	c #D2D2D6",
"7B	c #88888B",
"8B	c #EDEDF1",
"9B	c #F0F0F4",
"+B	c #EEEFF1",
"/B	c #57A94D",
"AC	c #58C84E",
"BC	c #53CD48",
"CC	c #57CE4B",
"DC	c #5BD04E",
"EC	c #60D253",
"FC	c #56CE4B",
"GC	c #31C22B",
"HC	c #19BB17",
"IC	c #13B912",
"JC	c #20BC1B",
"KC	c #41C734",
"LC	c #6DD758",
"MC	c #85DF6B",
"NC	c #89E16E",
"OC	c #8DE371",
"PC	c #91E574",
"QC	c #94E676",
"RC	c #98E879",
"SC	c #87DE62",
"TC	c #5FBD36",
"UC	c #77777D",
"VC	c #96BC94",
"WC	c #42AC3A",
"XC	c #3FC439",
"YC	c #42C63B",
"ZC	c #45C73E",
"aC	c #4DCA46",
"bC	c #25BE23",
"cC	c #03B302",
"dC	c #10AA0C",
"eC	c #1A9A12",
"fC	c #1F9C15",
"gC	c #23A917",
"hC	c #21B813",
"iC	c #21B912",
"jC	c #47C733",
"kC	c #79D961",
"lC	c #7EDB65",
"mC	c #80DD67",
"nC	c #83DE69",
"oC	c #86DF6C",
"pC	c #7EDA5B",
"qC	c #3F8222",
"rC	c #0A0A0B",
"sC	c #73737B",
"tC	c #DFDFE6",
"uC	c #E9E9EF",
"vC	c #E7E8EC",
"wC	c #3E8B36",
"xC	c #33BF2F",
"yC	c #2FBF2C",
"zC	c #32C02E",
"0C	c #39C235",
"1C	c #13B813",
"2C	c #0CB309",
"3C	c #238F17",
"4C	c #237015",
"5C	c #26511E",
"6C	c #2E432B",
"7C	c #365A31",
"8C	c #398527",
"9C	c #3CB324",
"+C	c #32BD1A",
"/C	c #44C42D",
"AD	c #71D55A",
"BD	c #73D65D",
"CD	c #74D75E",
"DD	c #76D860",
"ED	c #76D655",
"FD	c #489627",
"GD	c #3B3B41",
"HD	c #E2E2E9",
"ID	c #E6E6EC",
"JD	c #AEC7B1",
"KD	c #2D9C25",
"LD	c #1FBA1E",
"MD	c #21BA20",
"ND	c #24BB22",
"OD	c #19BA18",
"PD	c #0BB508",
"QD	c #2BA01A",
"RD	c #268D15",
"SD	c #333433",
"TD	c #38383B",
"UD	c #45484B",
"VD	c #45962F",
"WD	c #44C026",
"XD	c #3BBE1F",
"YD	c #53C83B",
"ZD	c #68D053",
"aD	c #68D153",
"bD	c #68D254",
"cD	c #6ED14E",
"dD	c #5DC434",
"eD	c #64646A",
"fD	c #E3E3E9",
"gD	c #6B9B6A",
"hD	c #25AD21",
"iD	c #16B416",
"jD	c #15B715",
"kD	c #18B818",
"lD	c #02B301",
"mD	c #27B61A",
"nD	c #2AAB17",
"oD	c #416138",
"pD	c #438035",
"qD	c #55C232",
"rD	c #4BC228",
"sD	c #50C433",
"tD	c #5CCA45",
"uD	c #5ECB49",
"vD	c #5CCB49",
"wD	c #5BCC49",
"xD	c #61C943",
"yD	c #55B92F",
"zD	c #090909",
"0D	c #9B9BA3",
"1D	c #E0E0E7",
"2D	c #D9D9E0",
"3D	c #528A4E",
"4D	c #21B020",
"5D	c #10AF11",
"6D	c #0AB40B",
"7D	c #08B408",
"8D	c #08B606",
"9D	c #2EB31B",
"+D	c #2AB017",
"/D	c #64C83E",
"AE	c #61CC3A",
"BE	c #62CA3A",
"CE	c #64CB43",
"DE	c #62CB46",
"EE	c #5ECB45",
"FE	c #55C93D",
"GE	c #47C530",
"HE	c #33C020",
"IE	c #4ABE2C",
"JE	c #31671D",
"KE	c #131811",
"LE	c #7F7F83",
"ME	c #8A8A8E",
"NE	c #CBCBD5",
"OE	c #DCDCE5",
"PE	c #CDCDD5",
"QE	c #588D54",
"RE	c #27AD26",
"SE	c #07B007",
"TE	c #01B301",
"UE	c #10B90B",
"VE	c #2CAB19",
"WE	c #7BD84D",
"XE	c #4DB030",
"YE	c #499934",
"ZE	c #4D9739",
"aE	c #569D41",
"bE	c #5A9F45",
"cE	c #5DA147",
"dE	c #60A44A",
"eE	c #70B55A",
"fE	c #84BE72",
"gE	c #828584",
"hE	c #BCBCCC",
"iE	c #CCCCD8",
"jE	c #D5D5DF",
"kE	c #D9D9E2",
"lE	c #CECED5",
"mE	c #659263",
"nE	c #39AB37",
"oE	c #02B102",
"pE	c #00B300",
"qE	c #10B90A",
"rE	c #2EAF1A",
"sE	c #688461",
"tE	c #7B7B7F",
"uE	c #8F8F98",
"vE	c #BABBC0",
"wE	c #CBCCD4",
"xE	c #D2D2DB",
"yE	c #D7D7E1",
"zE	c #A4A4BA",
"0E	c #A8A8BD",
"1E	c #B0B0C3",
"2E	c #B5B5C7",
"3E	c #C5C5CF",
"4E	c #7C9D7D",
"5E	c #51AA4E",
"6E	c #04B104",
"7E	c #07B504",
"8E	c #39BB21",
"9E	c #31B71B",
"+E	c #8C8C8D",
"/E	c #9D9DA3",
"AF	c #AEAFB7",
"BF	c #C2C4CC",
"CF	c #B4B5C6",
"DF	c #AFB0C2",
"EF	c #A8A9BD",
"FF	c #565662",
"GF	c #5C5C68",
"HF	c #61616E",
"IF	c #9A9AAF",
"JF	c #A5A5BB",
"KF	c #B9B9C8",
"LF	c #9FB3A4",
"MF	c #6EAE6A",
"NF	c #12AE12",
"OF	c #09B505",
"PF	c #37C41F",
"QF	c #3BC020",
"RF	c #989899",
"SF	c #ADAEB4",
"TF	c #BDC0C4",
"UF	c #B6B9C4",
"VF	c #A3A4B9",
"WF	c #767686",
"XF	c #A7A7BC",
"YF	c #B1B1C3",
"ZF	c #D0D5D5",
"aF	c #8CB68A",
"bF	c #3EAC3E",
"cF	c #01B300",
"dF	c #09B504",
"eF	c #11B709",
"fF	c #1CBB0F",
"gF	c #4DCC2C",
"hF	c #46C326",
"iF	c #49C028",
"jF	c #A1A2A3",
"kF	c #C4C6CD",
"lF	c #D4D8D9",
"mF	c #ACB0BE",
"nF	c #A3A5B9",
"oF	c #4D4D57",
"pF	c #ABABBF",
"qF	c #AAAABE",
"rF	c #AEAEC1",
"sF	c #E1E1E7",
"tF	c #B1C5B4",
"uF	c #8FBD8F",
"vF	c #20B21D",
"wF	c #0FB708",
"xF	c #17B90D",
"yF	c #20BB11",
"zF	c #2BBE17",
"0F	c #4FCC2D",
"1F	c #5ACA33",
"2F	c #56BF30",
"3F	c #6DB257",
"4F	c #A8ADA7",
"5F	c #BEBFC2",
"6F	c #D5D5DD",
"7F	c #E0E1E6",
"8F	c #ACADBE",
"9F	c #AAAABF",
"+F	c #060607",
"/F	c #444448",
"AG	c #B4B4C6",
"BG	c #C7C7D4",
"CG	c #E5E9E9",
"DG	c #BED6BF",
"EG	c #92BF93",
"FG	c #31B629",
"GG	c #1EBA10",
"HG	c #27BD14",
"IG	c #2FBF19",
"JG	c #37C11D",
"KG	c #44C426",
"LG	c #74C45A",
"MG	c #A3B89C",
"NG	c #BFC1C1",
"OG	c #E2E3E9",
"PG	c #C6C6D3",
"QG	c #B3B3C4",
"RG	c #434348",
"SG	c #080808",
"TG	c #141415",
"UG	c #7E7E85",
"VG	c #B3B3C5",
"WG	c #B9B9CA",
"XG	c #BDBDCD",
"YG	c #DDDDE5",
"ZG	c #E0E8E4",
"aG	c #D1E2D3",
"bG	c #B8CEBA",
"cG	c #77BA70",
"dG	c #4DBC3C",
"eG	c #43C02C",
"fG	c #4DC132",
"gG	c #86BF79",
"hG	c #AFBCAD",
"iG	c #CED0D2",
"jG	c #E8E8EF",
"kG	c #EEEEF3",
"lG	c #DCDCE4",
"mG	c #B8B8C9",
"nG	c #BBBBCB",
"oG	c #AFAFC2",
"pG	c #B2B2C4",
"qG	c #7D7D85",
"rG	c #0C0C0D",
"sG	c #686872",
"tG	c #B0B0C2",
"uG	c #BFBFCE",
"vG	c #C2C2D0",
"wG	c #C3C3D1",
"xG	c #C8C8D3",
"yG	c #E2E2E8",
"zG	c #E7EDEA",
"0G	c #DCE6E0",
"1G	c #DAE4DF",
"2G	c #D0D8D3",
"3G	c #CBD1CD",
"4G	c #CED1D1",
"5G	c #D8D9DC",
"6G	c #E5E6EB",
"7G	c #E8E9EF",
"8G	c #F1F1F5",
"9G	c #C1C1CF",
"+G	c #BEBECE",
"/G	c #B4B4C5",
"AH	c #AFAFC1",
"BH	c #A9A9BE",
"CH	c #686871",
"DH	c #0C0C0E",
"EH	c #A3A3B4",
"FH	c #9F9FAD",
"GH	c #CBCBD6",
"HH	c #CACAD5",
"IH	c #CDCDD7",
"JH	c #D1D1DA",
"KH	c #DDDDE4",
"LH	c #ECEFEF",
"MH	c #ECF0EF",
"NH	c #E7EBEC",
"OH	c #E5E8EB",
"PH	c #E7E9ED",
"QH	c #EBECF1",
"RH	c #F0F0F3",
"SH	c #DDDDE3",
"TH	c #D0D0D9",
"UH	c #CCCCD7",
"VH	c #C9C9D5",
"WH	c #CACAD6",
"XH	c #676770",
"YH	c #9E9EAC",
"ZH	c #A1A1B3",
"aH	c #44444B",
"bH	c #4C4C53",
"cH	c #030304",
"dH	c #5B5B60",
"eH	c #D4D4DD",
"fH	c #D7D7DE",
"gH	c #DADAE1",
"hH	c #E3E4E7",
"iH	c #EBECED",
"jH	c #EFF0F1",
"kH	c #F0F0F2",
"lH	c #ECECEF",
"mH	c #E3E3E7",
"nH	c #DDDDE2",
"oH	c #DADAE0",
"pH	c #D6D6DD",
"qH	c #D3D3DC",
"rH	c #5A5A60",
"sH	c #4B4B52",
"tH	c #43434A",
"uH	c #78787C",
"vH	c #E1E1E6",
"wH	c #E0E0E5",
"xH	c #E4E4E7",
"yH	c #E6E6E9",
"zH	c #E8E8EA",
"0H	c #E9E9EB",
"1H	c #E3E3E6",
"2H	c #DFDFE4",
"3H	c #DCDCE2",
"4H	c #77777B",
"5H	c #060606",
"6H	c #C2C2C8",
"7H	c #E2E2E7",
"8H	c #EAEAED",
"9H	c #EDEDEE",
"+H	c #EEEEEE",
"/H	c #EEEEEF",
"AI	c #EFEFEF",
"BI	c #ECECEE",
"CI	c #E9E9EC",
"DI	c #DBDBE1",
"EI	c #C1C1C7",
"FI	c #656567",
"GI	c #E4E4E6",
"HI	c #4A4A4B",
"II	c #6F6F6F",
"JI	c #AEAEAE",
"KI	c #E5E5E5",
"LI	c #F2F2F2",
"MI	c #6E6E6E",
"NI	c #4A4A4A",
"OI	c #E2E2E6",
"PI	c #565658",
"QI	c #CECED3",
"RI	c #888889",
"SI	c #8E8E8E",
"TI	c #F0F0F0",
"UI	c #8F8F8F",
"VI	c #878788",
"WI	c #CDCDD2",
"XI	c #101010",
"YI	c #7D7D7E",
"ZI	c #0E0E0E",
"aI	c #888888",
"bI	c #898989",
"cI	c #7C7C7E",
"dI	c #7F7F7F",
"                          BACADADAEACA                          ",
"                FAEAGA      HAIAIAHAJA    KAEALA                ",
"              MANAOAPABA    QAIAIAQARA  SATAUAVAEA              ",
"            WAXAYAZAaAbAWA  cAIAZAdAeAfAgAhAZAYAXABA            ",
"              iAjAZAkAlAmAnAoApAqArAsAtAuAvAwAxAyAzA      0A1A  ",
"              DA2A3A3A4A5A6A7A8A9A+A/AABBBCBDBEBFBGB    HBIBJB  ",
"      KAEABAbA  KBLBLBMBNBOBPBQBRBSBTBUBVBWB+A/AXBYBZBaBbBcBdB  ",
"    eBfBgBMADAhBiBjBkBlBmBnBoBpBqBrBsBtBQBRBuBvBwBxByBzB0B1B2B  ",
"  DA3B4B5B6B7B8B9B+B/BACBCCCDCECFCGCHCICJCKCLCMCNCOCPCQCRCSCTC  ",
"    UC8B8B8B8B8B8BVCWCXCYCZCaCbCcCdCeCfCgChCiCjCkClCmCnCoCpCqC  ",
"    rCsCtCuCuCuCvCwCxCyCzC0C1C2C3C4C5C6C7C8C9C+C/CADBDCDDDEDFD  ",
"        GDHDIDIDJDKDLDMDNDODPDQDRD    SDTDUDVDWDXDYDZDaDbDcDdD  ",
"        eDfDfDfDgDhDiDjDkDlDmDnD        oDpDqDrDsDtDuDvDwDxDyD  ",
"EAzDBA  0D1D1D2D3D4D5D6D7D8D9D+D        /DAEBECEDEEEFEGEHEIEJEKE",
"bALEMEaANEOEOEPEQERESETETEUEVE          WEXEYEZEaEbEcEdEeEfEgEeB",
"  hEiEjEkEkEkElEmEnEoEpEpEqErE            sEtEuEvEwExEyEjEiEhE  ",
"  zEzEzE0E1E2E3E4E5E6EpEpE7E8E9E          +E/EAFBFCFDFEFzEzEzE  ",
"  FFGFHFIFJFzEKFLFMFNFpElDOFPFQF          RFSFTFUFVFJFIFHFGFFF  ",
"        WFXFJFYFZFaFbFcFdFeFfFgFhFiF      jFkFlFmFnFXFWF        ",
"        oFpFqFrFsFtFuFvFwFxFyFzF0F1F2F3F4F5F6F7F8FEF9FoF        ",
"    +FJA/FYFYFAGBGCGDGEGFGGGHGIGJGKGLGMGNGOG8BPGQGDF1ERGbAFA    ",
"  SGTGUGVG1EhEWGXGYGZGaGbGcGdGeGfGgGhGiGjGkGlGhEmGnGoGpGqGPArG  ",
"    sGpFtG2EuGvGwGxGyGzG0G1G2G3G4G5G6G7G8GyGPGvG9G+G/GAHBHCHJA  ",
"    DHEHAGFHCHGHHHIHJHKHLHMHNHOHPHQH8GRHSHTHUHVHWHXHYHVGZHDH    ",
"      aHbHcH  dH6FeHfHgHSHhHiHjHkHlHmHnHoHpHqHeHrH  DAsHtH      ",
"                uHSHvHwHxHyHzH0H0HzHyH1H2HwH3H4H                ",
"            JA5H6H3H7H8H9H+H/HAIAI+H9HBICIvHDIEI+FWA            ",
"            JAFIDIwHGIHIIIJIKILILIKIJIMINIOI2H2DFIWA            ",
"              PIQIxHRI      SITITIUI      VIOIWIPIJA            ",
"                XIYIZI      aITITIbI      ZIcIXI                ",
"                            dITITIdI                            ",
"                                    JA                          "
};
