/* XPM */
static char *Comm1_xpm[] = {
"32 32 30 1",
"A	c #000000",
" 	c None",
"C	c #FFFFFF",
"D	c #808080",
"E	c #BCBABA",
"F	c #2B2B2B",
"G	c #141414",
"H	c #0C0C0C",
"I	c #070707",
"J	c #030303",
"K	c #010101",
"L	c #BEC0C0",
"M	c #CBCBCB",
"N	c #DDDDDD",
"O	c #F0F0F0",
"P	c #FCFCFF",
"Q	c #FEFEFE",
"R	c #F5F5F5",
"S	c #C3C3C3",
"T	c #D3D3D3",
"U	c #E7E7E7",
"V	c #FAFAFA",
"W	c #999999",
"X	c #8A8A8A",
"Y	c #838383",
"Z	c #878787",
"a	c #FF0000",
"b	c #FE0101",
"c	c #FE0404",
"d	c #FE0303",
"                                ",
"                                ",
"                                ",
"                                ",
"                                ",
"                                ",
"                                ",
"                                ",
"                                ",
"         IIIHIHA                ",
"        JOOUUUIHIHHHHHGH        ",
"        KRROOOIXUNNNNTTHA       ",
"        KQVVRRJZOUUNNNTHA       ",
"        ACCQPVJYROOUUUUIA       ",
"      AAACCCCQKYVRRcOOUIAA      ",
"AAAAAAADACCCCCADQQbbdcOIDAAAAAAA",
"       CACCCCCADCaaaabVKC       ",
"AAAAAAACJPPQQQADCCaaaaQKCAAAAAAA",
"      AAIORRRRJYVVVbPPPKAA      ",
"        HNUNUUIXUOOORRRKA       ",
"        GMTTTTHWTNNNNNUIA       ",
"        FL SSSGWMSMMSTMGJ       ",
"        FEEESLFFFFFFFGFG        ",
"         FFFFFFJ                ",
"                                ",
"                                ",
"                                ",
"                                ",
"                                ",
"                                ",
"                                ",
"                                "
};
