/* XPM */
static char *Comm0_xpm[] = {
"32 32 24 1",
"A	c #000000",
" 	c None",
"C	c #FFFFFF",
"D	c #808080",
"E	c #BCBABA",
"F	c #141414",
"G	c #0C0C0C",
"H	c #070707",
"I	c #030303",
"J	c #010101",
"K	c #BEC0C0",
"L	c #CBCBCB",
"M	c #D3D3D3",
"N	c #DDDDDD",
"O	c #E7E7E7",
"P	c #F5F5F5",
"Q	c #FCFCFF",
"R	c #FAFAFA",
"S	c #C1C1C1",
"T	c #FEFEFE",
"U	c #F0F0F0",
"V	c #FF0000",
"W	c #FE0101",
"X	c #FE0303",
"                                ",
"                                ",
"                                ",
"                                ",
"                                ",
"                                ",
"                                ",
"                                ",
"                                ",
"      HHHHHHHA                  ",
"     IPPUUUUHDA   AHHHHHGHGG    ",
"     JRPPPPPIDAX   HOOOOOONHA   ",
"     JQRRRRRIDA   AIUUUUOOOHA   ",
"     ACTTTTQJDA  X IPPUUUUUHA   ",
"   AAACCCCCCADA X AJRRPXPPUIAA  ",
"AAAADACCCCCCADA    JTWWWWRPIDAAA",
"    CACCCCCCADAX  AACVVVWWRJC   ",
"AAAACJQTTTTTADA X  ACVVVVCTJCAAA",
"   AAIPPPPPPIDA   AIRRRWRRRJAA  ",
"     HOOOUUOHDAXXX HUUUUUUPIA   ",
"     GNNNNNNGDA   AHOOOOOOOHA   ",
"     FMMMMMMGDA X  GNMNNNNNGA   ",
"     FLLLLLLFDA   AFFFFGFGFG    ",
"      FFFFFFFA                  ",
"                                ",
"                                ",
"                                ",
"                                ",
"                                ",
"                                ",
"                                ",
"                                "
};
