/* XPM */
static char *Database_xpm[] = {
"32 32 37 1",
"A	c None",
"B	c #000000",
"C	c #FFFF00",
"D	c #FEFE01",
"E	c #808080",
"F	c #FCFF03",
"G	c #F8FF07",
"H	c #010101",
"I	c #F2FF0D",
"J	c #000303",
"K	c #BEC0C0",
"L	c #FF00FF",
"M	c #FF0000",
"N	c #000505",
"O	c #FA0505",
"P	c #BBC1C2",
"Q	c #EAFF15",
"R	c #E1FF1E",
"S	c #D5FF2A",
"T	c #C7FF38",
"U	c #000A0A",
"V	c #788787",
"W	c #000F0F",
"X	c #B8C2C2",
"Y	c #B7FF48",
"Z	c #F20D0D",
"a	c #B2C4C4",
"b	c #800080",
"c	c #BDC1C1",
"d	c #A8FF57",
"e	c #B6C3C3",
"f	c #AFC6C6",
"g	c #EE1212",
"h	c #001D1D",
"i	c #ADC6C6",
"j	c #B2C2C2",
"k	c #97FF68",
"AAAAAAAAABAAAAAAAAAAAAAAAAAAAAAA",
"AAAAAAAABCBAAAAAAAAAAAAAAAAAAAAA",
"AAAAAAABCCCBAAAAAAAAAAAAAAAAAAAA",
"AAAAAABCCCCCBAAAAAAAAAAAAAAAAAAA",
"AAAAABCCCCCCDBAAAAAAAAAAAAAAAAAA",
"AAAABCCCCDEFFGHAAAAAAAAAAAAAAAAA",
"AAABCCCDFFFEGGIJKAAAAAAALMLAAAAA",
"AABCCFFFEGGIEIIIJNJJJJNNOLONNPAA",
"ABDFFFGGGEIIIEQQQNRRRRSSSSSSTNPA",
"AAHFGGEIIIEQQQERRRNUEEVUUUWTTTUA",
"AAAHIIIEQQQEQRRERRSNLMLSTTTWXYUA",
"AAAKJIIQEQQRRRRRSSSSULZWWTTYWPUB",
"AAAAKJQQRERRRSSSSSTUTTTTYWaYUBbB",
"AAAAAcJRRRESSSSSTTUWWWWYYYWXUbMB",
"AAAAAAcNRSSSSSTTTWTTYYYWaYUBbMbB",
"AAAAAcNUUUUUUWWVVVWWWYYdWeUbMbMB",
"AAAAANSSSTTTTTTLMLYYYWfdUBbMbMbB",
"AAAcNUUWWUWWWWWgLgWdddhXUbMbMbMB",
"AAANSTTTTTTYYYYYdddWidUBbMbMbMbB",
"AAANTTETVYVYYYddddddhjWbMbMbMbMB",
"AAANTYYYYYYddddddkkkWBbMbMbMbMbB",
"AAAUYYEYVdVdEdVkkkkkWbMbMbMbMbBA",
"AABUYYYdddddkkkkkkkWbMbMbMbMbBAA",
"ABMUYdVdVdVkVkkkkkWbMbMbMbMbBAAA",
"BBBUUUUUUWWUWWWWWWbMbMbMbMbBAAAA",
"BMMMMMMMMMMMMMMMMHMbMbMbMbBAAAAA",
"BBBBBBBBBBBBBBBBBBBMbMbMbBAAAAAA",
"AABbMbMbMbMbMbMbMbBbMbMbBAAAAAAA",
"AAABbMbMbMbMbMbMbMbBbMbBAAAAAAAA",
"AAABMbMbMbMbMbMbMbMBMbBAAAAAAAAA",
"AAAABMbMbMbMbMbMbMbMBBAAAAAAAAAA",
"AAAAABBBBBBBBBBBBBBBBAAAAAAAAAAA"
};
