/* XPM */
static char *Dxf3TableTree_xpm[] = {
"288 22 256 2",
"AA	c #000000",
"BA	c #FFFFFF",
"CA	c #CDA6A9",
"DA	c #CEC9CA",
"EA	c #353334",
"FA	c #8A8889",
"GA	c #F3F1F3",
"HA	c #6B6A6B",
"IA	c #D2C4E6",
"JA	c #432E87",
"KA	c #3C396E",
"LA	c #A9A6FF",
"MA	c #242426",
"NA	c #E7E7E8",
"OA	c #8C8DA8",
"PA	c #D8D9FD",
"QA	c #212AFD",
"RA	c #696B7C",
"SA	c #122CA6",
"TA	c #EEF1FE",
"UA	c #D8D9DB",
"VA	c #8E9195",
"WA	c #DAE1E8",
"XA	c #F6FAFD",
"YA	c #757F83",
"ZA	c #018894",
"aA	c #027E89",
"bA	c #09808A",
"cA	c #033A3D",
"dA	c #607F80",
"eA	c #106869",
"fA	c #387778",
"gA	c #022222",
"hA	c #1F6161",
"iA	c #838585",
"jA	c #ABACAC",
"kA	c #055755",
"lA	c #017C74",
"mA	c #028277",
"nA	c #057E69",
"oA	c #13211D",
"pA	c #588F59",
"qA	c #B9F4BA",
"rA	c #C2FBC3",
"sA	c #C2F5C3",
"tA	c #D3FCD4",
"uA	c #D3FBD4",
"vA	c #00FF00",
"wA	c #45F146",
"xA	c #42E042",
"yA	c #4EF24F",
"zA	c #4FF24E",
"0A	c #4FF24F",
"1A	c #50E351",
"2A	c #51E351",
"3A	c #58F358",
"4A	c #59F358",
"5A	c #52E353",
"6A	c #58E558",
"7A	c #58E458",
"8A	c #59E458",
"9A	c #62F462",
"+A	c #61F362",
"/A	c #62F362",
"AB	c #5EE55D",
"BB	c #5EE55E",
"CB	c #60E660",
"DB	c #5FE560",
"EB	c #61E662",
"FB	c #60E560",
"GB	c #61E562",
"HB	c #62E561",
"IB	c #62E662",
"JB	c #62E562",
"KB	c #6BF46C",
"LB	c #6CF46B",
"MB	c #6CF46C",
"NB	c #68E768",
"OB	c #69E769",
"PB	c #6BE86C",
"QB	c #6BE76C",
"RB	c #6CE86C",
"SB	c #75F575",
"TB	c #75F576",
"UB	c #6FE86F",
"VB	c #6FE870",
"WB	c #76F576",
"XB	c #70E870",
"YB	c #74E974",
"ZB	c #74E874",
"aB	c #76E976",
"bB	c #76E876",
"cB	c #7FF67F",
"dB	c #7FF57F",
"eB	c #80F680",
"fB	c #80F580",
"gB	c #7FEB7F",
"hB	c #7FEB80",
"iB	c #7FEA7F",
"jB	c #7FEA80",
"kB	c #80EB80",
"lB	c #80EA80",
"mB	c #89F689",
"nB	c #89F68A",
"oB	c #8AF78A",
"pB	c #89EC89",
"qB	c #8AEC8B",
"rB	c #8BED8B",
"sB	c #8BEC8B",
"tB	c #93F794",
"uB	c #93F693",
"vB	c #94F794",
"wB	c #8FED8F",
"xB	c #93EE93",
"yB	c #93EE94",
"zB	c #93ED93",
"0B	c #93ED94",
"1B	c #96EE96",
"2B	c #9DF89D",
"3B	c #9DF89E",
"4B	c #9DF79D",
"5B	c #97EE97",
"6B	c #9DF09D",
"7B	c #9DEF9D",
"8B	c #9DEF9E",
"9B	c #9FF09F",
"+B	c #9FF0A0",
"/B	c #9FEF9F",
"AC	c #A7F9A7",
"BC	c #A1F0A1",
"CC	c #A1F0A2",
"DC	c #A7F8A7",
"EC	c #A6F1A7",
"FC	c #A6F0A7",
"GC	c #A7F0A7",
"HC	c #B0FAB1",
"IC	c #B0F9B0",
"JC	c #B0F9B1",
"KC	c #ACF2AC",
"LC	c #AEF2AE",
"MC	c #AEF2AF",
"NC	c #B0F3B0",
"OC	c #AFF2AF",
"PC	c #B0F2B0",
"QC	c #B0F2B1",
"RC	c #B1F2B1",
"SC	c #B9FAB9",
"TC	c #B9FABA",
"UC	c #BAFABA",
"VC	c #B9F4B9",
"WC	c #BAF4BA",
"XC	c #C2FBC2",
"YC	c #BDF5BD",
"ZC	c #C3FBC3",
"aC	c #BDF4BD",
"bC	c #C3FAC3",
"cC	c #C2F5C2",
"dC	c #C3F5C3",
"eC	c #CBFCCB",
"fC	c #CBFBCB",
"gC	c #CCFBCC",
"hC	c #CBF7CB",
"iC	c #CBF6CB",
"jC	c #DCFCDC",
"kC	c #111311",
"lC	c #BCBDBC",
"mC	c #077606",
"nC	c #69E768",
"oC	c #6CE86B",
"pC	c #76F475",
"qC	c #70E86F",
"rC	c #76E975",
"sC	c #80EB7F",
"tC	c #80EA7F",
"uC	c #8AF689",
"vC	c #8AED89",
"wC	c #8AEC89",
"xC	c #8BEC8A",
"yC	c #94F793",
"zC	c #90ED8F",
"0C	c #94EE93",
"1C	c #97EE96",
"2C	c #9EEF9D",
"3C	c #A7F1A6",
"4C	c #A7F0A6",
"5C	c #B1F9B0",
"6C	c #AFF2AE",
"7C	c #B1F3B0",
"8C	c #B1F2B0",
"9C	c #BAFAB9",
"+C	c #BAF9B9",
"/C	c #BAF4B9",
"AD	c #C3FAC2",
"BD	c #C3F5C2",
"CD	c #CCFBCB",
"DD	c #D4FCD3",
"ED	c #97D894",
"FD	c #418539",
"GD	c #81A877",
"HD	c #699D03",
"ID	c #0C0D0A",
"JD	c #EDF2E1",
"KD	c #9E9B13",
"LD	c #626024",
"MD	c #FDFB98",
"ND	c #FFFCA7",
"OD	c #D0C95E",
"PD	c #A5A155",
"QD	c #DED978",
"RD	c #FCF9C9",
"SD	c #FEFCE1",
"TD	c #DEC720",
"UD	c #FFFDF1",
"VD	c #906E02",
"WD	c #D0C7AA",
"XD	c #FEE59E",
"YD	c #302816",
"ZD	c #FDFCFA",
"aD	c #201C15",
"bD	c #A18D77",
"cD	c #C2B7AB",
"dD	c #E1E0DF",
"eD	c #FCCBAC",
"fD	c #7E7572",
"gD	c #DE522B",
"hD	c #FBEEEC",
"iD	c #99908F",
"jD	c #743E3A",
"kD	c #FCF4F4",
"lD	c #EDECEC",
"mD	c #D4D3D3",
"nD	c #A4A4A4",
"  	c None",
"pD	c #000000",
"qD	c #000000",
"rD	c #000000",
"sD	c #000000",
"tD	c #000000",
"uD	c #000000",
"vD	c #000000",
"wD	c #000000",
"xD	c #000000",
"yD	c #000000",
"zD	c #000000",
"0D	c #000000",
"1D	c #000000",
"2D	c #000000",
"3D	c #000000",
"4D	c #000000",
"5D	c #000000",
"6D	c #000000",
"7D	c #000000",
"8D	c #000000",
"9D	c #000000",
"+D	c #000000",
"/D	c #000000",
"            YA                              YA                              YA                              YA                              YA                              YA                              YA                                                                                                                                                                                                                                                                                                                                                                                  ",
"                                                                                                                                                                                                                                                                                                                                                                                                                                              jD                              jD                              jD                                                                                ",
"            dA                              dA                              dA                              dA                              dA                              dA                              dA                                                                                                                                                                                                                              jDRDjD                          jDjCjD                          jDLAjD                                                                              ",
"                                                                                                                                                                                                                                      lAlAlAlA                          lAlAlAlA                                                                                                                                                          jDRDRDRDjD                      jDDDuAtAjD                      jDLALALAjD                                                                            ",
"            dA                              dA                              dA                              dA                              dA                              dA                              dA                      pAKDKDKDKDLDcA                    FDKDKDKDKDpA                  fAHAHAHAHAHAHAHAHAeA          fAHAHAHAHAHAHAHAHAeA            fAHAHAHAHAHAHAHAHAeA            fAHAHAHAHAHAHAHAHAeA                  jDRDRDRDRDRDjD                  jDeCfCgCfCCDjD                  jDLALALALALAjD                        MD                                MD              ",
"                                                                                                                                                                                                                                  FDODSDRDNDMDTDYDcAmAlAlAlA        FDQDUDSDSDUDQDFD  lAlAlA        hACAkDkDkDGAGAUDWDYDkA        hACARDRDRDRDRDRDWDYDkA          hALALALALALALALALAYDkA          hACABDdCdCsAcCBDWDYDkA              jDRDRDRDRDRDRDRDjD              jDADADZCbCXCbCrAjD              jDLALALALALALALAjD                    MDjDMD                            MDjDMD            ",
"            dA                              dA                              dA                              dA                              dA                              dA                              dA                aAFDTDQDQDODQDQDQDPDKDKDKDKDKDFD    FDQDSDMDNDNDMDSDODKDKDKDKDKDnA    hAcDXAJDJDZDTAPAOAnDfDcA      hARDRDRDRDRDRDRDRDRDRDcA        hALALALALALALALALALALAcA        hA/C/CqAWCqAVC/CWCWC/CcA          jDRDRDRDRDRDRDRDRDRDjD          jDTCUCUCSCUCTC9CUC+CjD          jDLALALALALALALALALAjD                MDjDRAjDMD                        MDjDKCjDMD          ",
"                                                                                                    YAiAiAiAiAiAiAiAYA              YAiAiAiAiAiAiAiAYA              YAFAiAiAiDiAiAFAYA              YAFAiAiAiDiAiAFAYA        aAFDODSDRDRDRDRDRDRDRDRDRDNDMDLDcAZAFDQDSDMDNDNDMDNDNDRDkDUDSDODoA    hADAEDmCmCEDLAQAQASAaDIDkA    hARDRDRDRDRDRDRDRDRDRDRDkA      hALALALALALALALALALALALAkA      hANCPCPCNCRC8CNCQC7CPCNCkA          jDRDRDRDRDRDRDRDjD              jDICHC5CJCJCJCICjD              jDLALALALALALALAjD                MDjDRARARAjDMD                    MDjDCCCCBCjDMD        ",
"            dA                              dA                              dA                      FAhDkDkDGAkDkDhDFA              FAhDkDkDGAkDkDhDFA              FAhDkDkDNAkDkDhDFA              FAhDkDkDNAkDkDhDFA        aAFDODSDMDNDNDMDNDNDNDNDNDXDXDLDgA  FDODJDMDMDMDXDMDMDMDMDNDNDODkC    hADAEDmCmCGDTAPAPAUAdDfDgA    hARDgDgDgDRDRDRDRDRDgDgDgA      hALAgDgDgDLALALALALAgDgDgA      hA3CgDgDgD3C4CFCGCECgDgDgA            jDRDRDRDRDRDjD                  jDACACACDCDCjD                  jDLALALALALAjD                MDjDRARARARARAjDMD                MDjD1B1C5B1B1BjDMD      ",
"                                                                                                    iAkDBABABABABAkDiA              iAkDBABABABABAkDiA              iAkDBANAEANABAkDiA              iAkDBANAEANABAkDiA        aAFDODRDMDMDMDMDMDMDXDXDXDXDMDLDcAHDKDKDKDKDKDKDKDKDKDKDKDODNDODgA    hADAEDmCmCEDLAQAQALAZDfDcA    hAgDgDRDgDRDRDRDRDRDgDRDcA      hAgDgD2CgDLALALALALAgDvAcA      hAgDgD2CgD8B7B7B8B6BgDvAcA          jDRDjDRDRDRDjDRDjD              jD3BjD2B2B4BjD2BjD              jDhCjDLALALAjDiCjD            MDjDRARARARARARARAjDMD            MDjDqBsBxCxCsBrBqBjDMD    ",
"            dA                              dA                              dA                      iAkDUAUAUAUAdDkDiA              iAkDUAUAUAUAdDkDiA              iAkDdDlCIDlCdDkDiA              iAkDdDlCIDlCdDkDiA        bAFDODRDMDMDMDMDMDMDMDXDXDXDXDLDcAVDQDRDQDMDMDQDMDXDQDXDPDIDQDODoA    hACAkDNAdDNAPAWAmDmDGAfDcA    hAgDRDRDgDRDRDRDRDgDgDgDcA      hAgD0CxBgDLALALALAgDgDgDcA      hAgD0CxBgDyBzB0C0BgDgDgDcA        jDRDRDRDjDRDjDRDRDRDjD          jDtBvBtBjDvBjDyCyCuBjD          jDaCYCaCjDLAjDaCYCaCjD        MDjDRARARARARARARARARAjDMD        MDjDsChBtCsCjBsCtClBkBjDMD  ",
"                                              dA  dA  dA  dA  dA              dA  dA  dA  dA  dA    FAlDEAkCkCkCEANAiDdA  dA  dA    FAlDEAkCkCkCEANAiDdA  dA  dA    VAlDEAkCAAkCEANAiDdA  dA  dA    VAlDEAkCAAkCEANAiDdA  dA  dAFDODRDMDMDMDMDXDXDXDXDXDXDMDLDcAHDWDUDMDNDNDXDXDNDXDNDODIDPDODoA    hAWDLAQAQAQAQAJAYDaDjAiDcA    hAgDRDRDgDgDRDRDgDRDgDRDcA      hAgDpBpBgDgDLALAgDvCgDpBcA      hAgDpBpBgDgDwCpBgDvCgDpBcA          jDRDRDRDjDRDRDRDjD              jDuCoBuCjDnBnBmBjD              jDMCMCOCjDMC6CLCjD            MDjDRARARARARARARAjDMD            MDjDYBZBYBZBYBZBYBjDMD    ",
"            dA                              dA                                                      iAkDUAUAUAUAUAkDiA              iAkDUAUAUAUAUAkDiA              iAkDdDlCIDlCdDGAiA              iAkDdDlCIDlCdDGAiA        bAFDODRDMDMDMDMDMDXDXDXDXDXDXDLDgA  FDQDSDMDMDMDMDXDXDXDXDKDaDKDoA    hAcDTAPAPAPAPAIAmDUAGAfDcA    hAgDRDgDgDgDgDgDgDRDgDRDcA      hAgDlBgDgDgDgDgDgDsCgDlBcA      hAgDlBgDgDgDgDgDgDsCgDlBcA            jDRDRDRDRDRDjD                  jDeBcBeBdBfBjD                  jD+B/B/B/B9BjD                MDjDRARARARARAjDMD                MDjDOBnCOBNBOBjDMD      ",
"                                                                                                    iAkDBABABABABAkDiA              iAkDBABABABABAkDiA              iAkDBANAEANABAkDiA              iAkDBANAEANABAkDiA        aAFDODSDMDMDXDXDXDXDXDXDXDeDXDLDcAZAFDODSDMDXDXDXDXDXDeDeDODIDVDoA    hAWDLAQAQAQAQAQAQAQALAbDcA    hAgDRDgDRDgDgDgDRDRDgDRDcA      hAgDaBgDrCgDgDgDaBaBgDbBcA      hAgDaBgDrCgDgDgDaBaBgDbBcA          jDRDjDRDRDRDjDRDjD              jDpCjDWBTBSBjDTBjD              jDwBjDzCzCwBjDwBjD                MDjDRARARAjDMD                    MDjDBBABABjDMD        ",
"            dA                              dA                                                      iAhDkDkDGAkDkDhDFA              iAhDkDkDGAkDkDhDFA              FAhDkDkDlDkDkDhDFA              FAhDkDkDlDkDkDhDFA          FDQDSDMDXDNDXDNDXDNDMDeDXDMDLDcA    FDQDSDMDXDXDMDXDXDXDQDKDIDgA    hACATAPAPAIAUAPAPAPAGAfDcA    hAgDgDgDRDgDRDgDgDRDgDRDcA      hAgDgDgDPBgDRBgDgDQBgDoCcA      hAgDgDgDPBgDRBgDgDQBgDoCcA        jDRDRDRDjDRDjDRDRDRDjD          jDKBMBMBjDMBjDMBMBLBjD          jDjBgBiBjDgBjDjBgBtCjD                MDjDRAjDMD                        MDjD5AjDMD          ",
"                                                                                                    YAFAiAiAFAiAiAFAYA              YAFAiAiAiAiAiAFAYA              YAFAiAiAiDiAiAFAYA              YAFAiAiAVAiAiAFAYA        aAFDTDODODODODODODODODODODODODLDcA  aAFDKDKDKDKDKDKDVDKDKDKDKDAAgA    hAWDLAQAQAKAPDLAQAQALAbDcA    hARDRDRDRDRDRDRDRDRDRDRDcA      hAHBIBEBIBGBIBJBIBIBIBGBcA      hAHBIBEBIBGBIBJBIBIBIBGBcA          jDRDRDRDjDRDRDRDjD              jD/A9A/AjD/A/A+AjD              jDXBVBXBjDVBqCUBjD                    MDjDMD                            MDjDMD            ",
"            dA                              dA                                                              dA                                                              dA                                                    cAIDIDIDIDIDIDIDIDIDIDIDIDAAcA      cAIDAAAAAAIDIDIDAAIDIDAAcA    hACAdDdDdDUAUAUAdDdDNAfDcA    hACARDRDRDRDRDRDRDRDRDfDcA      hACA7A7A7A7A6A6A6A8A7AfDcA      hACA7A7A7A7A6A6A6A8A7AfDcA            jDRDRDRDRDRDjD                  jD3A3A3A3A4AjD                  jDFBCBCBFBDBjD                        MD                                MD              ",
"                                                                                                                                                                                                                                                                                                    fAEAaDaDYDMAMAaDaDYDaDIDkA    fAEAaDaDYDMAMAaDaDYDaDIDkA      fAEAaDaDYDMAMAaDaDYDaDIDkA      fAEAaDaDYDMAMAaDaDYDaDIDkA              jDRDRDRDjD                      jDyAzA0AjD                      jD2A1A1AjD                                                                            ",
"            dA                              dA                                                              dA                                                              dA                                                                                                                                                                                                                                                              jDRDjD                          jDwAjD                          jDxAjD                                                                              ",
"                                                                                                                                                                                                                                                                                                                                                                                                                                              jD                              jD                              jD                                                                                ",
"            dA                              dA                                                              dA                                                              dA                                                                                                                                                                                                                                                                                                                                                                                                                  ",
"                                                                                                                                                                                                                                                                                                                                                                                                                                                                                                                                                                                                "
};
