/* XPM */
static char *Dxfcnc_xpm[] = {
"624 15 14 1",
" 	c None",
"1	c #000000",
"2	c #FFFF00",
"3	c #0000FF",
"4	c #FFFFFF",
"5	c #008080",
"6	c #FF00FF",
"7	c #FF0000",
"8	c #00FF00",
"9	c #00FFFF",
"A	c #008000",
"B	c #000080",
"C	c #800000",
"D	c #808080",
"                                      111            11111111111111     222222222222222222222222          343                                          333                                                              355555555555555555555553                                   1   1               111111                      111111       222222222222222222222222             11111                    11111     333333333333333333333333666666666661166666666666           77                    2222222                 8888888                     99                 33333333                   44444                                ",
"         11111111                    1   1 1         171444444441 1     2AAAAAAAAAAAAAAAAAAAAAA2          343                      1  1                433                                                              325555555555555555555523        11111111                   1   1               1999911                      1111        2                      2           114449911                 1444991    3 66666666666666666666 36         1221         6          777                  222     22              888     88                    99                33                        44    44                               ",
"         1511BBB1                         11         17144444444111     222222222222222222222222          343                     141  1               433                      9        9             222222           352255555575575555552253        199999911                  1   1               19999141                 111114411111    2    111111111         2          14444749991               144444 91   3 6    77       77   6 36        122221        6         7777                  22      222             88      88                  9999                33                       44      4                               ",
"         15551111             111        111         17144444444171     222222222222222222222222          343                1     141  1              343                   9  9       9   9          2    222         355522555575575555225553        1999999141                441 11               191191111111            1   141141   1   2  11111111111111      277    77 1444447444 91   77    77  14444444491  3 6  7777     7777   6 36        222222        6        77 77                  222      22             888     88                 99 99                33                       4                                       ",
"         15555511            14441111111             17144444444171     2A222A222222222A22222222          343               11  1   131  1             343                    9  9     9   9                  22        355555225575575522555553        19999991111                 1 1                1999991999911           1  1      1  1   2 9999999999991111     2 77  77  1444447444491    77  77   14444444491  3 6 77777 77 77777   6 36  12      22      21  6           77                          22                      88                 99 99                33333333                44                                       ",
"    7    15555511            14444444441             17144444444171     2A222A222222222A222222A2    11    343        222  1 1  141  131   111      77  334   77                9 9    9   9                    2        355555552279972255555553        19999999991                 111                19111119999141          1  11111111  1   2               111    2  7777  144444474444991    7777    14777777741  3 6    77 77    77   6 36 122      22      221 6           77                          22                     88                 99  99                333    33               44 44444                                 ",
"    77   15555511            14444444441             17144444444171     2A222A2AAA222AAA2AAAAAAA   1711   343   77777     111   1411131   1CC1     777 334  777                 9 9  9  99                     2        355555552279972255555553        19999999991                  1                 199999191191111         1            1   2                11    2   77   144444474444441     77     19444444441  3 6    77       77   6 3612222222222222222222216           77                        222                   88888                99   99                33      33              4444   444                               ",
"   77777 15555191        1   144441111111111         17711111111771     2A222A2A22A2A22A2222A2A2  121711  343     727      1     1333331  1CCC1     7723332777              99    9 9  9                     22222      355555552279972255555553        19999999991                 111                191111199999991         1     11111111   2   111         111    2  7777  147777777777741    7777    19444444441  3 6    77       77   6 3612222222222222222222216           77                      222                         88              99    99                        33              444     44                               ",
"   7777  15555511            144417777777771         17777777777771     2A222A2A22A2A22A22AAA2A2   11171  343    2277        1    1113331  1CCC1     77433777                 99   9  9                       222       355555552279972255555553        19999999991                 1 1111             199999191111191         1     19999911   2 11111       11119    2 77  77 194444474444441   77  77    19 444441   3 6    77       77   6 36 122      22      221 6           77                    222                           88              99    99                         33             44       44                              ",
"    77   15555511            14417777777771          17711111111171     2A222A2A22A2A22A2A22A2A2     1121 333  227777       11       13331  1CC1     27743772                   992929                        22        355555225575575522555553        19999999991              1111 1   1            111111199999991         1     199999141  111111111111111119     277    77199444474444441  77    77  111994441    3 6    77       77   6 36  12      22      21  6           77                  222                              88            99     99                         33             44       44                              ",
"    7    15555511            1417711777771           17711111144171     22AAA22AAA222AAA2AAAA2AA      1721D3D2277   7     1 1         13331  11     2217777122                   24442                        22        355522555575575555225553        19999999991             1   1 1   1                  191111191         1     191119111  1111111111111119       2         1944447444441            111 11111     3 6    77 77    77   6 36          22          6           77                  22                      888      88             99999999999             333     33              44       44                              ",
"         15555511            117777777771            17711111144171     2222222A2222222222222222       17212277           111          13331         22777122                    24342                                  352255555575575555552253        19999999991             1   1 1   1                  199999991         1     199999991  991111199999999        2        11944447444441           111            3 6    77 77    77   6 36        122221        6           77                  22       22             88       88                   99                33      33               4       44                              ",
"         1511BBB1            11111111111             17711111144171     2222222A2222222222222222        17277              1            1331          227222                     23332                                  325555555575575555555523        19999999991             1   1  111                   111111111         1     191111191  2 99111                2        1119994744441           111             3 66666666666666666666 36         1221         6           77                  22222   22              88      88                    99                33     33                44     44                               ",
"         11111111                                     1111111111111     222222222222222222222222        1171                             11            2222                       222                                   355555555555555555555553        11111111111              111                                            11111199999991  222299922222222222222222       1111119444411           111              333333333333333333333333666666666661166666666666        77777777               22  222222               88888888                     99                 3333333                  44   444                               ",
"                                                                                                         11                                             22                                                                                                                                                                                                                           11111            111                                                                                                                                                                                                 44444                                 "
};
