/* XPM */
static char *Exit_xpm[] = {
"32 32 27 1",
" 	c None",
"B	c #00FF00",
"C	c #C1BFBC",
"D	c #DADA70",
"E	c #C1C1C1",
"F	c #D6E916",
"G	c #E0E010",
"H	c #EBF20B",
"I	c #F3F907",
"J	c #CCCF1A",
"K	c #BEC0C0",
"L	c #D0D090",
"M	c #B0B027",
"N	c #C7C7AB",
"O	c #88883C",
"P	c #5D5D52",
"Q	c #323266",
"R	c #C3C3C3",
"S	c #FF0000",
"T	c #FF4400",
"U	c #FA0505",
"V	c #FE0101",
"W	c #BBC1C2",
"X	c #F20D0D",
"Y	c #FE0303",
"Z	c #151575",
"a	c #00007F",
"                                ",
"                                ",
"      BBBBB                 DDD ",
"    BBBBBBBBB              FGHI ",
"    BBBBBBBBB             GGGG  ",
"   B  BB BB  B           JJGG   ",
"   B  BB BB  B          JJJJ    ",
"   B  BB BB  BB        MMJJ     ",
"  B   BB BB   B       MMMM      ",
"  B   BB BB   B      OMMM       ",
"  B   BB BB   B     OOOM        ",
"   B  BB BB  BB    OOOO         ",
"   B  BB BB  B    POOO          ",
"   B  BB BB  B N PPPP           ",
"    BBBBBBBBB N PPPP            ",
"    BBBBBBBBBN QQQP   SSSSS     ",
"     BBBBBBBC QQQP  TUVSSSSSS   ",
"             QQQQ  WXY     SS   ",
"            QZQQ   YVSS    SSS  ",
"           ZZZQ    S SS   SS S  ",
"          ZZQZ     S  SS SS  S  ",
"         ZZZZ     S   SS SS   S ",
"        aZZZ      S    SSS    S ",
"       aaZa       S    SSS    S ",
"      aaZa        S    SSS    S ",
"     aaaa          S  SS SS  S  ",
"    aaaa           S SSS SSS S  ",
"   aaaa            S SS   SS S  ",
"   aaa              SS     SS   ",
"                    SSSSSSSSS   ",
"                      SSSSS     ",
"                                "
};
