/* XPM */
static char *FullSize_xpm[] = {
"32 32 39 1",
"A	c None",
"B	c #C1BFBC",
"C	c #0000FF",
"D	c #808080",
"E	c #9FCB34",
"F	c #EBF20B",
"G	c #B4D629",
"H	c #77B54A",
"I	c #33916F",
"J	c #B1B1C5",
"K	c #A4C9C9",
"L	c #A7C8C8",
"M	c #A9A9C8",
"N	c #A0CACA",
"O	c #17827E",
"P	c #800080",
"Q	c #FEFE01",
"R	c #FFFF00",
"S	c #FBFD02",
"T	c #999999",
"U	c #8DC23D",
"V	c #F7FA05",
"W	c #65AC53",
"X	c #D6E916",
"Y	c #F3F907",
"Z	c #FFFC00",
"a	c #639D9D",
"b	c #9595CE",
"c	c #000CFF",
"d	c #F2FF0D",
"e	c #F8FF07",
"f	c #4C9E61",
"g	c #C1C1C1",
"h	c #FCFF03",
"i	c #C7FF38",
"j	c #EAFF15",
"k	c #7B0B85",
"l	c #CCCF1A",
"m	c #4D65B2",
"AAAAAAAAAAAAAAAAAAAAAAAAAAAAAAAA",
"AAAAAAAAAAAAAAAAAAAAAAAAAAAAAAAA",
"AAAAAAAAAAAAAAAAAAAAAAAAAAAAAAAA",
"BAAAAAAAAAAAAAAAAAAAAAAAAAAAAAAA",
"BACCCCCCCCCCCCCCCCCCCCCCCCCCCCAA",
"AACCCCCCCCCCCCCCCCCCCCCCCCCCCCAA",
"AACDDDEFGHIJKJLMKMKMKMNMKOHGECAA",
"AACDPPIQRRSEMNTNMNTNNTNUVRRRWCAA",
"AACDPPNXSRYNTNNMTNNTNMNOVRRFMCAA",
"AACDRZMISQSGNTNaNTNbaNaHSRRHTcAA",
"AACDPPaMXWIYFOTNaNaNNTGSHUdaNCAA",
"AACDPPNTNaNTGeWaMaNaOFeINTONaCAA",
"AACDRQTNaMaNaUeENabWSXabaaNabcAA",
"AACDPPabaNabNafVXNUSUaNaNaaaaCgA",
"AACDPPNabaNaabaTXVSfbaaaabaNaCAA",
"AACDPPaaNaaaNaaIYYRHaaabaaaaaCAA",
"AACDPPabaabaaaUeGaWhXaaaaaaaaCgA",
"AACDRhaaaaaaaiVHaaaIjjIaaaaaaCAA",
"AACDPkaaOaaIFFIaaaaaaldWaaIaaCAA",
"AACDPPaajUWdXaaaaaaaaaUeEHjOaCAA",
"AACDRQaWeheUaaaaaaaaaaaIehhGaCAA",
"AACDPPajZRVOaaaaaaaaaaaaFRRhOCAA",
"AACDPPfZRRQUaaaaaaaaaaafYRRSGCAA",
"AACDDDGXUfaaaamaOaOaOaOaaIWGXcAA",
"AACCCCCCCCCCCCcCCCCCCCCCCCCCCCBA",
"AAAAAAAAAAAAAAAgAAAAAAAAAAAAAAAA",
"AAAAAAAAAAAAAAAAAAAAAAAAAAAAAAAA",
"AAAAAAAAAAAAAAAAAAAAAAAAAAAAAAAA",
"AAAAAAAAAAAAAAAAAAAAAAAAAAAAAAAA",
"AAAAAAAAAAAAAAAAAAAAAAAAAAAAAAAA",
"AAAAAAAAAAAAAAAAAAAAAAAAAAAAAAAA",
"AAAAAAAAAAAAAAAAAAAAAAAAAAAAAAAA"
};
