/* XPM */
static char *GcodeVelo_xpm[] = {
"32 32 132 2",
"  	c None",
"BA	c #0000FF",
"CA	c #808080",
"DA	c #7F7F80",
"EA	c #A6EAAC",
"FA	c #A5DE9F",
"GA	c #C6FF8C",
"HA	c #800080",
"IA	c #7E7E81",
"JA	c #7EB8B8",
"KA	c #7EAFB0",
"LA	c #9EDB9C",
"MA	c #7E7E82",
"NA	c #79B4B6",
"OA	c #79ACAF",
"PA	c #56D6DB",
"QA	c #97D79B",
"RA	c #FFFF00",
"SA	c #7D7D83",
"TA	c #74AFB3",
"UA	c #74A9AD",
"VA	c #51D3D8",
"WA	c #FF0000",
"XA	c #50D3D8",
"YA	c #91D398",
"ZA	c #7C7C83",
"aA	c #6FADB1",
"bA	c #6FA7AC",
"cA	c #29BCFF",
"dA	c #4BD1D7",
"eA	c #8BD197",
"fA	c #7B7B84",
"gA	c #69A9B0",
"hA	c #69A4AB",
"iA	c #1D76FF",
"jA	c #438DD6",
"kA	c #00FFFF",
"lA	c #1FF7FF",
"mA	c #83CD96",
"nA	c #7A7A85",
"oA	c #63A6AE",
"pA	c #64A1AA",
"qA	c #3D8AD5",
"rA	c #005BFF",
"sA	c #3C89D4",
"tA	c #15B1FF",
"uA	c #18F2FF",
"vA	c #7DC995",
"wA	c #797986",
"xA	c #5DA2AD",
"yA	c #5F9EA9",
"zA	c #3786D3",
"0A	c #0E6DFD",
"1A	c #3685D3",
"2A	c #77C693",
"3A	c #569DAE",
"4A	c #5A9BA9",
"5A	c #0668FE",
"6A	c #0050FF",
"7A	c #3283D4",
"8A	c #3189D4",
"9A	c #71C294",
"+A	c #4F99AD",
"/A	c #5598A8",
"AB	c #697E92",
"BB	c #3F64BC",
"CB	c #0166FC",
"DB	c #2B7FD2",
"EB	c #2C7FD2",
"FB	c #4081BC",
"GB	c #4098BC",
"HB	c #4072BC",
"IB	c #6ABE92",
"JB	c #4894AD",
"KB	c #5094A8",
"LB	c #755E7F",
"MB	c #375EBC",
"NB	c #2480D2",
"OB	c #005EFC",
"PB	c #2479D2",
"QB	c #64B992",
"RB	c #4191AD",
"SB	c #4B91A8",
"TB	c #6B5980",
"UB	c #72617D",
"VB	c #043FE6",
"WB	c #6F797D",
"XB	c #0074FC",
"YB	c #0970F7",
"ZB	c #4270A7",
"aB	c #695B7D",
"bB	c #5F7793",
"cB	c #5EB693",
"dB	c #3A8DAC",
"eB	c #567191",
"fB	c #61557B",
"gB	c #1874D1",
"hB	c #0055FB",
"iB	c #6A557B",
"jB	c #587491",
"kB	c #008DE5",
"lB	c #468DA7",
"mB	c #58B091",
"nB	c #3189AC",
"oB	c #516B91",
"pB	c #126BD1",
"qB	c #2265BB",
"rB	c #4189A7",
"sB	c #51AB91",
"tB	c #2B86AD",
"uB	c #466893",
"vB	c #51497D",
"wB	c #3C86A8",
"xB	c #0D69D2",
"yB	c #4B6893",
"zB	c #4AA893",
"0B	c #2582AD",
"1B	c #3782A8",
"2B	c #42457F",
"3B	c #49437D",
"4B	c #436292",
"5B	c #43A392",
"6B	c #207DAD",
"7B	c #337DA8",
"8B	c #3C3D7F",
"9B	c #3C9C92",
"+B	c #24959E",
"/B	c #359694",
"AC	c #339694",
"BC	c #2F769C",
"CC	c #2E76A9",
"DC	c #3FB57E",
"                                                                ",
"                                                                ",
"                                                                ",
"                                                                ",
"                                                                ",
"                                                                ",
"                                                                ",
"            JAKAKAKAKAKAKAKAKAKAKAKAKAKAKAKAKAKAKAKAKA          ",
"            NAOAOAOAOAOAOAPAPAPAOAOAOAOAOAOAOAOAOAOAOA          ",
"            TAUAUAUAUAUAVAWAWAWAVAUAUAXAXAXAUAUAUAUAUA          ",
"            aAbAbAbAbAbAbAcARAcAbAbAdAWAWAWAdAbAbAbAbA          ",
"            gAhAhAhAhAhAhAiARAjAhAhAhAkAWAlAhAhAhAhAhA          ",
"            oApApApApApAqARArAsAsAsAtAWAuApApApApApApA          ",
"            xAyAyAyAyAyAzARARARARARARARA0A1A1A1AyAyAyA          ",
"            3A4A4A4A4A4A5ARARA6A7A7A6ARARARARARA8A4A4A          ",
"            +A/A/A/AABBBRACBCBRADBDBRACBEBFBGBHB/A/A/A          ",
"            JBKBKBLBkAkARAMBNBRAOBPBRAPBLBkAkAkALBKBKB          ",
"            RBSBTBkAUBVBRAkAWBXBRAYBRAZBkAaBbBaBkATBSB          ",
"            dBeBkAfBgBRAhBiBkAjBhBRAkBkAfBlBlBlBfBkAeB          ",
"            nBoBkAoBpBRApBoBkAoBpBRAqBkAoBrBrBrBoBkAoB          ",
"            tBuBkAvBwBxBwBvBkAuBwBxByBkAvBwBwBwBvBkAuB          ",
"            0B1B2BkA3B4B3BkA2B1B1B1B1B2BkA3B4B3BkA2B1B          ",
"            6B7B7B8BkAkAkA8B7B7B7B7B7B7B8BkAkAkA8B7B7B          ",
"            +B/B/BACBCCCBCAC/B/B/B/B/B/BACBCCCBCAC/B/B          ",
"                                                                ",
"                                                                ",
"                                                                ",
"                                                                ",
"                                                                ",
"                                                                ",
"                                                                ",
"                                                                "
};
