/* XPM */
static char *GoCnc_xpm[] = {
"32 32 366 2",
"  	c None",
"BA	c #4C87A3",
"CA	c #368EBB",
"DA	c #1988C5",
"EA	c #1084C8",
"FA	c #0D82CA",
"GA	c #0E84C8",
"HA	c #1385C4",
"IA	c #238BC4",
"JA	c #60777E",
"KA	c #3E8EBB",
"LA	c #1383C6",
"MA	c #0079C5",
"NA	c #0071C1",
"OA	c #0071BF",
"PA	c #0072C0",
"QA	c #0073BF",
"RA	c #0073BE",
"SA	c #0071BE",
"TA	c #0072C1",
"UA	c #047DCA",
"VA	c #248DC2",
"WA	c #528AA4",
"XA	c #1788CA",
"YA	c #0073C2",
"ZA	c #0074BF",
"aA	c #0070C2",
"bA	c #0179C7",
"cA	c #4191B7",
"dA	c #017ACC",
"eA	c #0074C0",
"fA	c #0073C1",
"gA	c #1588C4",
"hA	c #3D91BC",
"iA	c #0079C7",
"jA	c #0074BE",
"kA	c #0072BE",
"lA	c #0070BE",
"mA	c #0F87CC",
"nA	c #4A90AE",
"oA	c #0078C8",
"pA	c #0075BF",
"qA	c #0070BC",
"rA	c #006EBE",
"sA	c #0072BD",
"tA	c #0277C0",
"uA	c #077BC3",
"vA	c #0579C2",
"wA	c #0074C1",
"xA	c #0071C0",
"yA	c #006EBD",
"zA	c #006FBB",
"0A	c #1286CA",
"1A	c #5B828E",
"2A	c #0983CB",
"3A	c #006FBC",
"4A	c #0074BC",
"5A	c #2890CD",
"6A	c #69B4DB",
"7A	c #97CFE6",
"8A	c #C1E2ED",
"9A	c #D0E7EF",
"+A	c #CAE3EC",
"/A	c #B2DBEA",
"AB	c #95CCE5",
"BB	c #6CB5D9",
"CB	c #3096CF",
"DB	c #067CC4",
"EB	c #006FBE",
"FB	c #0073C0",
"GB	c #278FC5",
"HB	c #0072C4",
"IB	c #006FBF",
"JB	c #3396CA",
"KB	c #A9D7E7",
"LB	c #F0FBF7",
"MB	c #FFFFFC",
"NB	c #FFFFFF",
"OB	c #F5FBFC",
"PB	c #CAE7F0",
"QB	c #7CC1DE",
"RB	c #228DC6",
"SB	c #0071BD",
"TB	c #017AC7",
"UB	c #548397",
"VB	c #037BC8",
"WB	c #0070C0",
"XB	c #68B6D6",
"YB	c #EDFAFA",
"ZB	c #FCFFFF",
"aB	c #F8FCFA",
"bB	c #F4D4D1",
"cB	c #F2BDBB",
"dB	c #F4BFBD",
"eB	c #F6D2CE",
"fB	c #F4E8E5",
"gB	c #F8FBFB",
"hB	c #FDFFFF",
"iB	c #E7F6F9",
"jB	c #8AC9DF",
"kB	c #1C88C2",
"lB	c #006AC1",
"mB	c #1E8BC3",
"nB	c #308FBF",
"oB	c #006FBD",
"pB	c #5BB0D5",
"qB	c #FDFFFB",
"rB	c #FFFFFB",
"sB	c #FEFFFC",
"tB	c #FAFFFF",
"uB	c #EBB3AF",
"vB	c #DC4F4B",
"wB	c #D61B18",
"xB	c #D4120D",
"yB	c #D6130F",
"zB	c #D61A17",
"0B	c #D72924",
"1B	c #E04A46",
"2B	c #E5807A",
"3B	c #F0BDB8",
"4B	c #FDF6F2",
"5B	c #DAF1F3",
"6B	c #54AACE",
"7B	c #0078C7",
"8B	c #1184C8",
"9B	c #0075C0",
"+B	c #006FC3",
"/B	c #1E89CB",
"AC	c #E3F5F8",
"BC	c #FFFFFE",
"CC	c #FFFFFD",
"DC	c #E99D9B",
"EC	c #D40D0A",
"FC	c #D50603",
"GC	c #D50E0C",
"HC	c #D5100D",
"IC	c #D60F0C",
"JC	c #D70D0A",
"KC	c #D50905",
"LC	c #D30503",
"MC	c #D7110C",
"NC	c #DE3835",
"OC	c #E68882",
"PC	c #F1DDDA",
"QC	c #FEFFFE",
"RC	c #7DC3E2",
"SC	c #507C92",
"TC	c #047EC8",
"UC	c #76BCDA",
"VC	c #FBEDEC",
"WC	c #D82E2A",
"XC	c #D40905",
"YC	c #D7120F",
"ZC	c #D6120F",
"aC	c #D70F0D",
"bC	c #D60A07",
"cC	c #D10501",
"dC	c #D42520",
"eC	c #F0CBC8",
"fC	c #C4E2E9",
"gC	c #45839E",
"hC	c #B0DBED",
"iC	c #F9D6D4",
"jC	c #D81815",
"kC	c #D50F0B",
"lC	c #D5120E",
"mC	c #D4120F",
"nC	c #D50D0A",
"oC	c #D7201B",
"pC	c #F3D9D6",
"qC	c #B4B8B8",
"rC	c #D2D2D0",
"sC	c #458FB4",
"tC	c #0073C4",
"uC	c #0178BF",
"vC	c #C0E4F5",
"wC	c #FBE3E1",
"xC	c #D8221F",
"yC	c #D50D09",
"zC	c #D30704",
"0C	c #E6635D",
"1C	c #E7EDEB",
"2C	c #898A8A",
"3C	c #838383",
"4C	c #BABABA",
"5C	c #4390B9",
"6C	c #0072C2",
"7C	c #0077BE",
"8C	c #B2DDEF",
"9C	c #FEFCFB",
"+C	c #DF514C",
"/C	c #D60604",
"AD	c #D5120F",
"BD	c #D6100D",
"CD	c #D70C09",
"DD	c #F5B8B1",
"ED	c #C4CECD",
"FD	c #828281",
"GD	c #858585",
"HD	c #8E8E8E",
"ID	c #458FB2",
"JD	c #87C5E3",
"KD	c #EDAEAA",
"LD	c #D40B08",
"MD	c #D50806",
"ND	c #DB443D",
"OD	c #F2F0ED",
"PD	c #9A9D9C",
"QD	c #838483",
"RD	c #868686",
"SD	c #929292",
"TD	c #42829D",
"UD	c #0076C6",
"VD	c #3999C8",
"WD	c #F7FCF9",
"XD	c #FEFFFF",
"YD	c #FDFBF9",
"ZD	c #E0615C",
"aD	c #D50402",
"bD	c #D50C09",
"cD	c #F7B3B1",
"dD	c #CBD8D5",
"eD	c #838382",
"fD	c #878787",
"gD	c #949494",
"hD	c #568395",
"iD	c #037BC7",
"jD	c #0174BE",
"kD	c #ABD8E7",
"lD	c #F6E7E3",
"mD	c #D93B39",
"nD	c #D40806",
"oD	c #D40402",
"pD	c #E2615B",
"qD	c #F0F4F4",
"rD	c #969898",
"sD	c #9A9A9A",
"tD	c #0A7EC1",
"uD	c #2D93C9",
"vD	c #E9F8F6",
"wD	c #FDFEFE",
"xD	c #EED3CE",
"yD	c #D61F19",
"zD	c #D71210",
"0D	c #DA2D27",
"1D	c #FAE3DF",
"2D	c #B6BEBC",
"3D	c #818181",
"4D	c #848484",
"5D	c #999999",
"6D	c #2B88B7",
"7D	c #5EAFD7",
"8D	c #FBFFF9",
"9D	c #FEFFFD",
"+D	c #EB9794",
"/D	c #D40C09",
"AE	c #D60B07",
"BE	c #D70806",
"CE	c #D51D19",
"DE	c #F6C8C0",
"EE	c #D4DADD",
"FE	c #878584",
"GE	c #858686",
"HE	c #8B8B8B",
"IE	c #6497A5",
"JE	c #0077C5",
"KE	c #0070BD",
"LE	c #6CB7D6",
"ME	c #F9FEF9",
"NE	c #FBFEFE",
"OE	c #EFA9A8",
"PE	c #D92320",
"QE	c #D40602",
"RE	c #D30603",
"SE	c #D5231C",
"TE	c #F4C2BB",
"UE	c #DEE7E9",
"VE	c #8D8D8E",
"WE	c #858484",
"XE	c #1F85BB",
"YE	c #5AADD1",
"ZE	c #EBF7F8",
"aE	c #F1D4D1",
"bE	c #DD4D48",
"cE	c #DA4039",
"dE	c #F3CEC9",
"eE	c #DAE2E4",
"fE	c #8E8E8F",
"gE	c #898989",
"hE	c #9C9C9C",
"iE	c #7195A2",
"jE	c #047AC4",
"kE	c #0075C1",
"lE	c #0075BE",
"mE	c #0074C2",
"nE	c #3294CD",
"oE	c #B3DDEA",
"pE	c #FDFEFC",
"qE	c #FBFFFF",
"rE	c #F7F7F5",
"sE	c #FBF6F3",
"tE	c #D9DFDF",
"uE	c #888587",
"vE	c #7D7F7E",
"wE	c #959595",
"xE	c #488EAF",
"yE	c #0075C4",
"zE	c #0070BF",
"0E	c #0279BD",
"1E	c #57AED2",
"2E	c #DCF0F2",
"3E	c #F4F4F3",
"4E	c #CDCDCD",
"5E	c #A1A1A1",
"6E	c #828282",
"7E	c #919191",
"8E	c #3689AF",
"9E	c #0077BF",
"+E	c #0070C4",
"/E	c #006CBD",
"AF	c #1C8BC5",
"BF	c #71BBDC",
"CF	c #BDE0E8",
"DF	c #F3FBFC",
"EF	c #ECE3DF",
"FF	c #C2BDBB",
"GF	c #A1A1A0",
"HF	c #9B9B9C",
"IF	c #398AAE",
"JF	c #0079C4",
"KF	c #006EBB",
"LF	c #0278C0",
"MF	c #2591CD",
"NF	c #52AAD5",
"OF	c #7AC0DD",
"PF	c #8FCAE6",
"QF	c #9BD0EA",
"RF	c #95D0EC",
"SF	c #A9D9E9",
"TF	c #B6B6B7",
"UF	c #5693A9",
"VF	c #117EC3",
"WF	c #006DBE",
"XF	c #006CBE",
"YF	c #006DC0",
"ZF	c #0075C3",
"aF	c #1E83BC",
"bF	c #7998A3",
"cF	c #89A1A5",
"dF	c #398BB0",
"eF	c #0C80C1",
"fF	c #0076C3",
"gF	c #0072BF",
"hF	c #1E82BA",
"iF	c #5A91AC",
"jF	c #93A6AB",
"kF	c #5491AB",
"lF	c #3086B8",
"mF	c #107FBB",
"nF	c #067BBE",
"oF	c #047AC1",
"pF	c #057ABF",
"qF	c #097BBF",
"rF	c #1C83BB",
"sF	c #408BB2",
"tF	c #6B97AA",
"                                                                ",
"                        BACADAEAFAGAHAIA                        ",
"                  JAKALAMANAOAPAQARAQASATAUAVA                  ",
"                WAXAYAQAZAZAZAZAZAZAZAZAZAYAaAbA                ",
"              cAdANAeAZAZAZAZAZAZAZAZAZAZAeAZAfATAgA            ",
"            hAiATAZAZAZAZAZAjARAkAkAkARARAZAZAZAZAlAmA          ",
"          nAoAQAeAZApApARAqArAsAtAuAvAwAxAyAzAkAQAjASA0A        ",
"        1A2AkAZAZAZARA3A4A5A6A7A8A9A+A/AABBBCBDBzAEBQAFB        ",
"        GBHBZAZAeARAIBJBKBLBMBNBNBNBNBNBNBNBOBPBQBRBSBEBTB      ",
"      UBVBQAZAZAjAWBXBYBNBNBZBaBbBcBdBeBfBgBhBNBNBiBjBkBlBmB    ",
"      nBPAZAFBZAoBpBqBrBsBtBuBvBwBxByBzB0B1B2B3B4BNBNB5B6B7B    ",
"      8BRAZA9B+B/BACBCCCNBDCECFCGCHCHCICJCKCLCMCNCOCPCCCQCRC    ",
"    SCTCFBZAeAqAUCNBBCNBVCWCXCYCZCZCZCZCZCZCZCaCbCcCdCeCNBNBfC  ",
"    gC7BeAjAFBQAhCNBNBNBiCjCkClCZCZCZCZCZCZCZCmCZCnCoCpCqCrCNB  ",
"    sCtCZAZAPAuCvCNBNBNBwCxCyCZCZCZCZCZCZCZCZCZCZCzC0C1C2C3C4C  ",
"    5C6CZAZAPA7C8CNBNBNB9C+C/CADZCZCZCZCZCZCZCZCBDCDDDEDFDGDHD  ",
"    IDYAeAjAwAlAJDNBNBNBNBKDLDBDZCZCZCZCZCZCZCZCMDNDODPDQDRDSD  ",
"    TDUDZAjAeArAVDWDNBNBXDYDZDaDZCZCZCZCZCZCZCHCbDcDdDeDfDRDgD  ",
"    hDiDRAZAZAkAjDkDNBNBNBNBlDmDnDZCZCZCZCZCZCoDpDqDrD3CfDGDsD  ",
"      tDRAZAZAZArAuDvDNBwDQCNBxDyDbCzDADZCYCXC0D1D2D3DfDfD4D5D  ",
"      6DxAZAZAZAZArA7D8D9DNBNBZB+D/DAEYCZCBECEDEEEFEGEfDRDHE    ",
"      IEJEQAZAZA9BjAKELEMENBXDNEtBOEPEQERESETEUEVEWEfDfDGDgD    ",
"        XEPAjAZAZAZATAOAYEZErBBCBChBaEbEcEdEeEfEQDfDfDRDgEhE    ",
"        iEjEjAkEZAZAlEmEyAnEoENBNBpEqErEsEtEuEvERDfDfDGDwE      ",
"          xEyEZA9BZAZAZAjAzE0E1E2ENBMBNBNB3E4E5EfD3D6E7E        ",
"            8E9EFBZAeAZApAeA+E/EAFBFCFDFNBNBNBMBEFFFGFHF        ",
"              IFJFFBpAZAZAZAZAZAlAKFLFMFNFOFPFQFRFSFTF          ",
"                UFVFTAxAjAZAZAZAZAZARAOAWFXFYFZFaFbF            ",
"                  cFdFeFfFWBYAFBFBYAfAgFFBMAhFiF                ",
"                      jFkFlFmFnFoFpFqFrFsFtF                    ",
"                                                                ",
"                                                                "
};
