/* XPM */
static char *Isel_xpm[] = {
"32 32 3 1",
" 	c None",
"1	c #808080",
"2	c #0008FF",
"                                ",
"                                ",
"                                ",
"                                ",
"                                ",
"                                ",
"                                ",
"                                ",
"                                ",
"                                ",
"       22                   22  ",
"                            22  ",
"                            2   ",
"       2   2222     2222    2   ",
"      22  22  22  22   22  22   ",
"      22  22   2  22   22  22   ",
"      22  222    22     2  22   ",
"      2    2222  22222222  2    ",
"      2      222 22        2    ",
"     22  22   22 22    2  22    ",
"     22  22   22  2   22  22    ",
"     22   22222    2222   22    ",
"                                ",
"                                ",
"                                ",
"                                ",
"                                ",
"                                ",
"                                ",
"                                ",
"                                ",
"                                "
};
