/* XPM */
static char *OpenData_xpm[] = {
"32 32 56 1",
"A	c None",
"B	c #000000",
"C	c #808080",
"D	c #FFFFFF",
"E	c #977A7A",
"F	c #897676",
"G	c #0F0000",
"H	c #CAAFAF",
"I	c #FF0000",
"J	c #FF0700",
"K	c #FF1800",
"L	c #FF3000",
"M	c #FF4400",
"N	c #FF5300",
"O	c #FF6100",
"P	c #FF6B00",
"Q	c #FF7700",
"R	c #FF7D00",
"S	c #FF8B00",
"T	c #FF9300",
"U	c #FF9D00",
"V	c #FFA500",
"W	c #FFAE00",
"X	c #FFB500",
"Y	c #FFBD00",
"Z	c #FFC100",
"a	c #0B0000",
"b	c #FFF4F4",
"c	c #FF0E00",
"d	c #FF7100",
"e	c #FF8400",
"f	c #FF9900",
"g	c #FFA200",
"h	c #FFA900",
"i	c #FFB200",
"j	c #FFBA00",
"k	c #FFC900",
"l	c #FFCD00",
"m	c #FF2200",
"n	c #FFC600",
"o	c #FFD100",
"p	c #FFD600",
"q	c #070000",
"r	c #FFD900",
"s	c #FFDD00",
"t	c #837D7D",
"u	c #008080",
"v	c #FFE100",
"w	c #FFE500",
"x	c #040000",
"y	c #FFED00",
"z	c #FFEA00",
"0	c #FFF200",
"1	c #FFF600",
"2	c #C5B1B1",
"3	c #FFFC00",
"AAAAAAAAAAAAAAAAAAAAAAAAAAAAAAAA",
"AAAAAAAAAAAAAAAAAAAAAAAAAAAAAAAA",
"AAAAAAAAAAAAAAAAAAAAAAAAAAAAAAAA",
"AAAAAAAAAAAAAAAAAAAAAAAAAAAAAAAA",
"AAAAAAAAAAAAAAAAAAAAAAABBBBBAAAA",
"AAAAAAAAAAAAAAAAAAAAAABAAAABBAAA",
"AAAAAAAAAAAAAAAAAAAAABBAAAAABABA",
"AAAAAAAAAAAAAAAAAAAAAAAAAAAAABBA",
"AAAAAAACCCCCAAAAAAAAAAAAAAAABBBA",
"AAAAAACAAAAACAAAAAAAAAAAAAAABBBA",
"AAAAACADDDDDDCCCCCCCCCCCCCCAAAAA",
"AAAAACADDDDDDAAAAAADAAAAAADBAAAA",
"AAAAACADDDDDDDDDDDDDDDDDDDDBAAAA",
"CCEEEEEEEEEEFFFFFFFFFFGDDDDBAAAA",
"CAHIIJKLMNOPQRSTUVWXYZabDDDBAAAA",
"ACHIIcLMMOPdReSfghijZklaDDDBAAAA",
"ACHIcmLMNOPQeSTUVWXYnkoaDDDBAAAA",
"ACHJKLMNOPQRSTfghijZkopqDDDBAAAA",
"ACHcmLMOOdReSfUhijZnlorqDDDBAAAA",
"AAEHLMNOPQRSTUVWXjZlopstBDuBAAAA",
"AACHMNOPdReTfghijZklprvtBuuBAAAA",
"AACHMNOdQeSTUhWXYnlorswtxuuBAAAA",
"AAAEHOPQRSTUgWijZkopsvwytBuBAAAA",
"AAACHPdReSfUhijZnlprvwzytBuBAAAA",
"AAACHPQeSTUVWXYnkorswwy0tBuBAAAA",
"AAAAFHReTfghijZklprvwzy0yCBBAAAA",
"AAAAtHeSfUhijZnlorvwzy010CBBAAAA",
"AAAAC22TUVWijZkopsvwz00013BBAAAA",
"AAAAACFFFFFFFFttttttttCCCCCBAAAA",
"AAAAACBBBBBBBBBBBBBBBBBBBBBBAAAA",
"AAAAAAAAAAAAAAAAAAAAAAAAAAAAAAAA",
"AAAAAAAAAAAAAAAAAAAAAAAAAAAAAAAA"
};
